<svg xmlns="http://www.w3.org/2000/svg" xmlns:xlink="http://www.w3.org/1999/xlink" viewBox="0 0 421.19 171.07"><defs><style>.cls-1{fill:#9b9b9b;}.cls-2{fill:#20201e;}.cls-3{fill:url(#linear-gradient);}.cls-4{fill:url(#linear-gradient-2);}.cls-5{fill:url(#linear-gradient-3);}.cls-6{fill:url(#linear-gradient-4);}.cls-7{fill:url(#linear-gradient-5);}.cls-8{fill:url(#linear-gradient-6);}</style><linearGradient id="linear-gradient" x1="123.13" y1="13.88" x2="131.45" y2="8.68" gradientUnits="userSpaceOnUse"><stop offset="0" stop-color="#2f287b"/><stop offset="1" stop-color="#12002b"/></linearGradient><linearGradient id="linear-gradient-2" x1="121.82" y1="41.61" x2="130.89" y2="47.55" xlink:href="#linear-gradient"/><linearGradient id="linear-gradient-3" x1="135.61" y1="13.88" x2="143.94" y2="8.68" gradientUnits="userSpaceOnUse"><stop offset="0" stop-color="#32529d"/><stop offset="1" stop-color="#2f287b"/></linearGradient><linearGradient id="linear-gradient-4" x1="134.31" y1="41.61" x2="143.37" y2="47.55" xlink:href="#linear-gradient-3"/><linearGradient id="linear-gradient-5" x1="148.1" y1="13.88" x2="156.42" y2="8.68" gradientUnits="userSpaceOnUse"><stop offset="0" stop-color="#63abcc"/><stop offset="1" stop-color="#32529d"/></linearGradient><linearGradient id="linear-gradient-6" x1="146.79" y1="41.61" x2="155.86" y2="47.55" xlink:href="#linear-gradient-5"/></defs><title>DXsolutions_RGB_1</title><g id="Layer_2" data-name="Layer 2"><g id="Layer_1-2" data-name="Layer 1"><path class="cls-1" d="M1.92,169.93V153.59a.78.78,0,0,1,.86-.87h9.9a.79.79,0,0,1,.87.87v.14a.78.78,0,0,1-.87.86H3.93v6.11h8.31a.78.78,0,0,1,.86.87v.08a.77.77,0,0,1-.86.85H3.93v6.43h8.75a.78.78,0,0,1,.87.86v.14a.79.79,0,0,1-.87.87H2.78A.78.78,0,0,1,1.92,169.93Z"/><path class="cls-1" d="M17,163.2a.81.81,0,0,1,.87-.91h6a.91.91,0,0,1,0,1.81h-6A.81.81,0,0,1,17,163.2Z"/><path class="cls-1" d="M29.75,169.93V154.59H25.32a.78.78,0,0,1-.86-.86v-.14a.78.78,0,0,1,.86-.87H36.18a.78.78,0,0,1,.86.87v.14a.78.78,0,0,1-.86.86H31.77v15.34a.79.79,0,0,1-.87.87h-.28A.79.79,0,0,1,29.75,169.93Z"/><path class="cls-1" d="M38.72,161.78c0-6.44,4-9.26,8.5-9.26s8.47,2.82,8.47,9.26-4,9.29-8.52,9.29S38.72,168.35,38.72,161.78Zm15,0c0-4.62-2.5-7.39-6.45-7.39s-6.51,2.75-6.51,7.39,2.41,7.42,6.46,7.42S53.67,166.49,53.67,161.78Z"/><path class="cls-1" d="M59.5,161.78c0-6.44,4-9.26,8.5-9.26s8.47,2.82,8.47,9.26-4,9.29-8.51,9.29S59.5,168.35,59.5,161.78Zm15,0c0-4.62-2.49-7.39-6.45-7.39s-6.51,2.75-6.51,7.39S63.9,169.2,68,169.2,74.45,166.49,74.45,161.78Z"/><path class="cls-1" d="M80.82,169.93V153.59a.79.79,0,0,1,.87-.87H82a.79.79,0,0,1,.87.87v15.34h7.55a.78.78,0,0,1,.86.86v.14a.78.78,0,0,1-.86.87h-8.7A.79.79,0,0,1,80.82,169.93Z"/><path class="cls-1" d="M93.2,167.41c-.29-.48-.14-.81.45-1l.21-.08c.46-.19.76-.08,1.16.48a6.6,6.6,0,0,0,5.47,2.49c2.84,0,4.73-1.28,4.73-3.32,0-5-11.54-1.63-11.54-8.56,0-2.88,2.64-4.91,6.21-4.91,2.93,0,5.5,1.22,6.68,3.24.3.5.14.87-.41,1.05l-.27.09c-.45.13-.76,0-1.15-.48a5.64,5.64,0,0,0-4.78-2.08c-2.56,0-4.33,1.21-4.33,3.09,0,5.14,11.56,1.53,11.56,8.58,0,3.06-2.75,5.1-6.69,5.1C97.23,171.05,94.47,169.62,93.2,167.41Z"/><path class="cls-1" d="M118.92,169.93V153.59a.78.78,0,0,1,.86-.87h9.15a.79.79,0,0,1,.87.87v.12a.79.79,0,0,1-.87.87h-8v6.52h7.56a.77.77,0,0,1,.86.84V162a.78.78,0,0,1-.86.85h-7.56v7.06a.78.78,0,0,1-.86.87h-.29A.78.78,0,0,1,118.92,169.93Z"/><path class="cls-1" d="M133.06,161.78c0-6.44,4-9.26,8.51-9.26s8.47,2.82,8.47,9.26-4,9.29-8.52,9.29S133.06,168.35,133.06,161.78Zm15,0c0-4.62-2.5-7.39-6.45-7.39s-6.51,2.75-6.51,7.39,2.41,7.42,6.46,7.42S148,166.49,148,161.78Z"/><path class="cls-1" d="M166.61,170.8h-.48a1.19,1.19,0,0,1-1-.56l-4.3-6c-.43,0-.87,0-1.34,0h-3v5.61a.78.78,0,0,1-.86.87h-.3a.78.78,0,0,1-.86-.87V153.59a.78.78,0,0,1,.86-.87h4.22c5.42,0,8.17,1.35,8.17,5.77,0,3.28-1.62,4.92-4.7,5.53l4.21,5.72C167.62,170.41,167.44,170.8,166.61,170.8Zm-1-12.24c0-3.35-2.24-4-6.18-4h-3v8h3C163.37,162.55,165.61,161.9,165.61,158.56Z"/><path class="cls-1" d="M179.94,169.93V153.59a.78.78,0,0,1,.86-.87h9.9a.79.79,0,0,1,.87.87v.14a.78.78,0,0,1-.87.86H182v6.11h8.31a.78.78,0,0,1,.86.87v.08a.77.77,0,0,1-.86.85H182v6.43h8.75a.78.78,0,0,1,.87.86v.14a.79.79,0,0,1-.87.87h-9.9A.78.78,0,0,1,179.94,169.93Z"/><path class="cls-1" d="M195.77,169.93V153.59a.79.79,0,0,1,.87-.87h.58a1.16,1.16,0,0,1,1.06.55l10.29,14.49V153.59a.79.79,0,0,1,.87-.87h.28a.79.79,0,0,1,.87.87v16.34a.79.79,0,0,1-.87.87h-.51a1.16,1.16,0,0,1-1.06-.55l-10.36-14.59v14.27a.79.79,0,0,1-.87.87h-.28A.79.79,0,0,1,195.77,169.93Z"/><path class="cls-1" d="M215.51,169.93V153.59a.78.78,0,0,1,.86-.87h3.45c7.37,0,10.39,2.81,10.39,9s-3,9.05-10.39,9.05h-3.45A.78.78,0,0,1,215.51,169.93Zm12.67-8.2c0-5-2.43-7.15-8.32-7.15h-2.34v14.35h2.36C225.75,168.93,228.18,166.79,228.18,161.73Z"/><path class="cls-1" d="M234.56,169.93V153.59a.79.79,0,0,1,.87-.87h.28a.79.79,0,0,1,.87.87v15.34h7.55a.78.78,0,0,1,.86.86v.14a.78.78,0,0,1-.86.87h-8.7A.79.79,0,0,1,234.56,169.93Z"/><path class="cls-1" d="M248.65,169.93V153.59a.78.78,0,0,1,.86-.87h9.9a.79.79,0,0,1,.87.87v.14a.78.78,0,0,1-.87.86h-8.75v6.11H259a.79.79,0,0,1,.87.87v.08a.78.78,0,0,1-.87.85h-8.3v6.43h8.75a.78.78,0,0,1,.87.86v.14a.79.79,0,0,1-.87.87h-9.9A.78.78,0,0,1,248.65,169.93Z"/><path class="cls-1" d="M263.17,167.41c-.29-.48-.14-.81.45-1l.21-.08c.46-.19.76-.08,1.16.48a6.61,6.61,0,0,0,5.47,2.49c2.84,0,4.73-1.28,4.73-3.32,0-5-11.54-1.63-11.54-8.56,0-2.88,2.64-4.91,6.21-4.91,2.93,0,5.5,1.22,6.68,3.24.3.5.14.87-.41,1.05l-.27.09c-.45.13-.76,0-1.15-.48a5.64,5.64,0,0,0-4.78-2.08c-2.56,0-4.33,1.21-4.33,3.09,0,5.14,11.56,1.53,11.56,8.58,0,3.06-2.75,5.1-6.69,5.1C267.2,171.05,264.44,169.62,263.17,167.41Z"/><path class="cls-1" d="M279.93,167.41c-.29-.48-.14-.81.46-1l.2-.08c.47-.19.76-.08,1.16.48a6.61,6.61,0,0,0,5.47,2.49c2.85,0,4.74-1.28,4.74-3.32,0-5-11.55-1.63-11.55-8.56,0-2.88,2.64-4.91,6.21-4.91,2.93,0,5.5,1.22,6.69,3.24.29.5.13.87-.42,1.05l-.27.09c-.44.13-.76,0-1.15-.48a5.62,5.62,0,0,0-4.78-2.08c-2.56,0-4.32,1.21-4.32,3.09,0,5.14,11.55,1.53,11.55,8.58,0,3.06-2.75,5.1-6.68,5.1C284,171.05,281.2,169.62,279.93,167.41Z"/><path class="cls-1" d="M305.11,161.71c0-5.52,3.43-9.26,8.47-9.26,3.1,0,5.51,1.1,6.92,3.38A.69.69,0,0,1,320,157l-.27.06a1,1,0,0,1-1.13-.45,5.72,5.72,0,0,0-5-2.3c-3.88,0-6.48,3-6.48,7.46s2.5,7.47,6.45,7.47,6.14-2.22,6.28-6.31h-5.36a.79.79,0,0,1-.87-.86v-.08a.78.78,0,0,1,.87-.84h6.57c.56,0,.87.23.87.72v.41c0,5.43-3.24,8.77-8.43,8.77S305.11,167.35,305.11,161.71Z"/><path class="cls-1" d="M338.5,170.8H338a1.19,1.19,0,0,1-1-.56l-4.3-6c-.43,0-.87,0-1.33,0h-3v5.61a.79.79,0,0,1-.87.87h-.29a.79.79,0,0,1-.87-.87V153.59a.79.79,0,0,1,.87-.87h4.21c5.42,0,8.18,1.35,8.18,5.77,0,3.28-1.63,4.92-4.71,5.53l4.22,5.72C339.51,170.41,339.33,170.8,338.5,170.8Zm-1-12.24c0-3.35-2.24-4-6.18-4h-3v8h3C335.26,162.55,337.5,161.9,337.5,158.56Z"/><path class="cls-1" d="M343.25,161.78c0-6.44,4-9.26,8.5-9.26s8.47,2.82,8.47,9.26-4,9.29-8.52,9.29S343.25,168.35,343.25,161.78Zm14.95,0c0-4.62-2.49-7.39-6.45-7.39s-6.51,2.75-6.51,7.39,2.41,7.42,6.46,7.42S358.2,166.49,358.2,161.78Z"/><path class="cls-1" d="M367.75,170.08l-5.65-16.35c-.21-.58.09-1,.71-1h.37a.94.94,0,0,1,1,.71L369,167.91l4.45-14.44a.91.91,0,0,1,1-.72h.27a.93.93,0,0,1,1,.72l4.47,14.44,4.89-14.45a1,1,0,0,1,1-.71h.36c.62,0,.92.4.71,1l-5.67,16.35a1,1,0,0,1-1,.72H380a.94.94,0,0,1-1-.73l-4.44-14.41-4.42,14.41a.92.92,0,0,1-1,.73h-.44A1,1,0,0,1,367.75,170.08Z"/><path class="cls-1" d="M394.32,169.93V154.59h-4.43a.78.78,0,0,1-.86-.86v-.14a.78.78,0,0,1,.86-.87h10.86a.78.78,0,0,1,.86.87v.14a.78.78,0,0,1-.86.86h-4.41v15.34a.79.79,0,0,1-.87.87h-.28A.79.79,0,0,1,394.32,169.93Z"/><path class="cls-1" d="M405.31,169.93V153.59a.78.78,0,0,1,.86-.87h.29a.78.78,0,0,1,.86.87v7.11h9.94v-7.11a.78.78,0,0,1,.86-.87h.28a.79.79,0,0,1,.87.87v16.34a.79.79,0,0,1-.87.87h-.28a.78.78,0,0,1-.86-.87V162.5h-9.94v7.43a.78.78,0,0,1-.86.87h-.29A.78.78,0,0,1,405.31,169.93Z"/><path class="cls-2" d="M71.38,76.19C55,76.19,43.7,88.89,43.7,105.25S55,134.32,71.38,134.32,99,121.62,99,105.25,87.74,76.19,71.38,76.19Zm0,47.3c-10.42,0-16.61-7.81-16.61-18.24S61,87,71.38,87s16.53,7.81,16.53,18.23S81.72,123.49,71.38,123.49Z"/><path class="cls-2" d="M290.11,76.19c-16.37,0-27.69,12.7-27.69,29.06s11.32,29.07,27.69,29.07,27.6-12.7,27.6-29.07S306.47,76.19,290.11,76.19Zm0,47.3c-10.42,0-16.61-7.81-16.61-18.24S279.69,87,290.11,87s16.53,7.81,16.53,18.23S300.45,123.49,290.11,123.49Z"/><polygon class="cls-2" points="196.24 87.1 211.63 87.1 211.63 133.67 222.46 133.67 222.46 87.1 237.77 87.1 237.77 76.68 196.24 76.68 196.24 87.1"/><rect class="cls-2" x="244.68" y="76.68" width="10.83" height="56.99"/><polygon class="cls-2" points="358.16 108.68 325.35 76.19 324.62 76.19 324.62 133.67 335.45 133.67 335.45 101.75 368.26 134.32 368.99 134.32 368.99 76.68 358.16 76.68 358.16 108.68"/><polygon class="cls-2" points="116.72 123.33 116.72 99.01 116.72 93.86 116.72 76.68 105.89 76.68 105.89 93.86 105.89 99.01 105.89 133.67 111.97 133.67 111.97 133.67 116.72 133.67 116.72 133.67 116.72 133.67 140.08 133.67 140.08 123.33 116.72 123.33"/><path class="cls-2" d="M179,76.68V111a18.48,18.48,0,0,1-.28,3.16c-1,5.59-4.64,9-10,9.24-.23,0-.44.06-.68.06s-.45,0-.68-.06c-5.39-.27-9-3.65-10-9.24A18.48,18.48,0,0,1,157,111V76.68H146.18v34.6c0,1.15.08,2.25.18,3.33h0c0,.36.1.69.15,1s.09.67.14,1,.13.6.19.91c.1.48.2,1,.32,1.43,0,0,0,0,0,0a21.53,21.53,0,0,0,2.83,6.32c.25.39.51.76.78,1.12s.4.53.62.79A18.94,18.94,0,0,0,153,129l0,0,.1.1c.41.37.84.71,1.28,1l.27.2c.41.29.83.57,1.26.83l.44.26c.4.23.81.45,1.23.65l.63.29c.39.17.78.34,1.19.48l.82.28c.37.12.74.24,1.12.34s.71.16,1.06.24.67.15,1,.21.93.13,1.39.19c.28,0,.54.07.82.09.76.07,1.53.1,2.33.1h0c.79,0,1.57,0,2.33-.1.28,0,.54-.06.81-.09.47-.06.94-.11,1.39-.19s.69-.14,1-.21.72-.15,1.06-.24.76-.22,1.13-.34l.82-.28c.41-.14.8-.31,1.19-.48l.62-.29c.42-.2.83-.42,1.24-.65l.44-.26c.43-.26.85-.54,1.26-.83l.27-.2c.44-.34.86-.68,1.27-1l.11-.1,0,0a17.75,17.75,0,0,0,1.63-1.73c.22-.26.42-.52.62-.79s.53-.73.78-1.12a21.79,21.79,0,0,0,2.83-6.32s0,0,0,0c.13-.47.23-.95.33-1.43.06-.31.13-.6.19-.91s.09-.66.14-1,.11-.68.15-1h0a32.6,32.6,0,0,0,.19-3.33V76.68Z"/><path class="cls-2" d="M401.65,99.39c-8.79-2.68-11.07-4.47-11.07-7.16,0-3.18,3.17-5.3,8.46-5.3l1.2.06a18,18,0,0,1,10,3.64L415.63,82s-5.05-3.64-9.34-4.83a25.69,25.69,0,0,0-7.08-1c-14.66,0-20.11,9-20.11,16.45,0,8.38,5.29,13.27,18.48,17.26,9.52,2.85,12.05,4.23,12.05,7.73,0,3.26-4,5.78-10.26,6a15.06,15.06,0,0,1-8-2,8,8,0,0,1-3.91-5l-9.93,3.83c.89,4.72,4.48,8.87,10.09,11.48a24.34,24.34,0,0,0,8.06,2.44,34.15,34.15,0,0,0,4.16.25c14.73.16,21.33-8.06,21.33-17.51C421.19,106.64,412.72,102.73,401.65,99.39Z"/><path class="cls-2" d="M11.48,92.23c0-3.18,3.18-5.3,8.47-5.3l1.19.06a18,18,0,0,1,10,3.64L36.53,82s-5.05-3.64-9.33-4.83a25.77,25.77,0,0,0-7.09-1C5.46,76.19,0,85.14,0,92.64a13.4,13.4,0,0,0,5.9,11.58l6.19-10A3.53,3.53,0,0,1,11.48,92.23Z"/><path class="cls-2" d="M22.55,99.39c-1-.31-1.95-.61-2.81-.9l-6.07,9.77q2.21.84,4.81,1.64c9.53,2.85,12.05,4.23,12.05,7.73,0,3.26-4,5.78-10.26,6a15.06,15.06,0,0,1-8-2,7.94,7.94,0,0,1-3.88-4.89l-6.5,10.46A20.34,20.34,0,0,0,8.55,132a24.19,24.19,0,0,0,8.06,2.44,34,34,0,0,0,4.15.25c14.74.16,21.33-8.06,21.33-17.51C42.09,106.64,33.63,102.73,22.55,99.39Z"/><path class="cls-2" d="M18.32,0H0V10.42H18.08c12,0,19.29,7.25,19.29,18.08S30,46.65,18.08,46.65H10.83V17.48L0,34.92V57H18.32C37.21,57,48.2,45.19,48.2,28.5S37.21,0,18.32,0Z"/><polygon class="cls-2" points="68.13 8.5 62.92 0 49.73 0 61.61 19 68.13 8.5"/><polygon class="cls-2" points="79.59 27.36 96.69 0 83.5 0 48.28 56.99 61.38 56.99 73.21 37.72 85.05 56.99 98.24 56.99 79.59 27.36"/><polygon class="cls-3" points="121.19 0 108.59 0 125.69 27.36 138.29 27.36 121.19 0"/><polygon class="cls-4" points="107.05 56.99 119.65 56.99 138.29 27.36 138.25 27.31 125.65 27.31 125.69 27.36 107.05 56.99"/><polygon class="cls-5" points="133.68 0 121.08 0 138.17 27.36 150.77 27.36 133.68 0"/><polygon class="cls-6" points="119.53 56.99 132.13 56.99 150.77 27.36 150.74 27.31 138.14 27.31 138.17 27.36 119.53 56.99"/><polygon class="cls-7" points="146.16 0 133.56 0 150.66 27.36 163.26 27.36 146.16 0"/><polygon class="cls-8" points="132.02 56.99 144.62 56.99 163.26 27.36 163.22 27.31 150.62 27.31 150.66 27.36 132.02 56.99"/></g></g></svg>